<?xml version="1.0" standalone="no"?>
<!DOCTYPE svg PUBLIC "-//W3C//DTD SVG 20010904//EN"
 "http://www.w3.org/TR/2001/REC-SVG-20010904/DTD/svg10.dtd">
<svg version="1.0" xmlns="http://www.w3.org/2000/svg"
 width="4719.000000pt" height="4662.000000pt" viewBox="0 0 4719.000000 4662.000000"
 preserveAspectRatio="xMidYMid meet">

<g transform="translate(0.000000,4662.000000) scale(0.100000,-0.100000)"
fill="#000000" stroke="none">
<path d="M21060 44370 c-803 -46 -1562 -303 -2245 -760 -329 -220 -505 -367
-840 -704 -399 -400 -744 -791 -1575 -1786 -704 -843 -842 -1001 -1066 -1221
-273 -266 -461 -387 -751 -483 -129 -43 -189 -80 -246 -150 -180 -226 -335
-588 -412 -965 -33 -159 -48 -291 -95 -836 -46 -533 -72 -788 -100 -990 -11
-77 -20 -171 -20 -210 1 -222 126 -482 360 -745 l67 -75 7 -95 c3 -52 15 -131
26 -175 10 -44 33 -151 50 -239 67 -339 257 -940 366 -1159 50 -99 133 -206
210 -269 51 -41 64 -57 60 -73 -32 -127 -44 -329 -27 -435 12 -74 45 -159 74
-190 12 -14 35 -46 50 -72 15 -25 49 -70 75 -100 27 -29 62 -78 77 -108 122
-242 396 -480 766 -666 l114 -57 30 18 c187 111 319 156 460 157 92 2 198 -17
214 -36 45 -54 386 -969 416 -1116 7 -33 5 -32 -35 25 -183 259 -396 448 -534
474 -95 18 -184 -28 -230 -118 -15 -29 -15 -29 9 -27 13 2 22 0 20 -4 -3 -4 5
-16 16 -26 15 -14 37 -18 87 -19 80 0 155 -33 267 -117 306 -230 484 -517 502
-811 7 -108 -10 -157 -64 -182 -36 -17 -107 -14 -163 7 -32 12 -25 5 102 -96
112 -89 159 -148 199 -251 27 -69 28 -78 18 -127 -7 -29 -13 -60 -14 -68 -4
-36 -18 -97 -27 -114 -8 -14 -7 -17 4 -10 11 6 11 5 -1 -9 -7 -9 -10 -17 -6
-17 5 0 1 -8 -8 -18 -10 -10 -14 -21 -11 -24 11 -12 34 -116 49 -225 16 -117
33 -170 60 -193 31 -26 81 23 137 133 14 28 15 27 31 -65 19 -107 20 -118 8
-100 -6 10 -14 5 -30 -21 -12 -20 -26 -37 -30 -39 -5 -2 -11 -12 -13 -23 -1
-11 -6 -22 -9 -25 -16 -14 -66 -117 -62 -127 3 -7 -1 -13 -9 -13 -12 0 -32
-28 -65 -93 -13 -24 -17 -26 -31 -15 -13 11 -14 11 -4 -7 34 -59 103 -111 168
-126 40 -9 61 -8 113 5 35 9 65 15 67 13 2 -2 17 -66 33 -142 108 -499 229
-794 444 -1080 41 -55 141 -176 222 -270 81 -93 202 -237 268 -320 306 -379
843 -856 1622 -1440 133 -99 252 -187 265 -196 24 -16 24 -16 -72 -72 -114
-67 -226 -155 -299 -235 -55 -60 -155 -205 -195 -283 l-23 -47 -483 -7 c-497
-7 -699 0 -948 31 -275 34 -576 105 -860 203 -611 210 -864 268 -1515 346 -33
4 -136 7 -228 6 -211 -1 -386 -31 -604 -102 -132 -43 -407 -166 -446 -199 -7
-6 -63 -40 -124 -77 -441 -260 -860 -730 -1283 -1439 -370 -619 -697 -1323
-1010 -2174 -163 -444 -529 -956 -1375 -1924 -517 -591 -571 -664 -635 -854
-60 -181 -29 -385 75 -482 l26 -25 49 56 c27 31 82 81 122 112 292 221 653
236 1038 42 387 -195 820 -619 1260 -1234 529 -740 879 -1440 1034 -2069 64
-258 89 -447 89 -677 0 -172 -12 -286 -44 -405 -20 -74 -28 -86 -339 -499
l-320 -423 31 -39 c89 -113 202 -181 310 -187 191 -11 307 135 619 786 223
465 277 555 480 802 458 555 741 1124 1009 2030 l19 65 5 -55 c7 -69 34 -619
48 -970 6 -146 12 -593 15 -995 4 -743 10 -874 55 -1405 70 -831 88 -1127 97
-1585 13 -649 -5 -994 -88 -1730 -45 -399 -49 -627 -15 -935 34 -302 155 -820
282 -1204 l56 -169 -7 -131 c-7 -131 -32 -404 -61 -676 -112 -1032 -125 -1336
-125 -2895 l0 -970 8071 -3 c7783 -3 8071 -3 8065 15 -18 63 -26 114 -40 243
-38 355 -74 1005 -111 2025 -31 842 -55 1392 -70 1559 -16 181 -28 281 -43
356 -14 71 -16 128 -12 355 9 503 5 1536 -8 1800 -13 263 -38 658 -47 750 -3
28 -12 156 -20 285 -16 246 -35 509 -59 820 -8 102 -20 246 -26 320 -5 74 -15
185 -20 245 -6 61 -17 189 -25 285 -8 96 -20 220 -25 275 -5 55 -19 199 -30
320 -21 223 -48 490 -75 735 -8 74 -26 245 -40 380 -13 135 -29 290 -35 345
-6 55 -13 264 -16 465 -7 505 -26 827 -85 1423 -17 169 -29 315 -27 324 2 9
41 -62 87 -158 46 -96 215 -437 375 -759 l291 -585 7 -200 c7 -214 24 -335 63
-451 13 -39 29 -118 35 -175 20 -201 60 -327 130 -411 37 -45 127 -90 235
-120 61 -16 109 -21 200 -21 125 -1 181 12 252 54 31 20 32 21 19 57 -7 20
-22 82 -32 137 -26 136 -26 540 -1 725 75 545 233 1078 515 1737 477 1113
1038 1907 1622 2298 186 124 424 220 575 232 l70 6 170 -204 c94 -112 174
-204 179 -204 5 0 65 108 133 240 120 233 123 241 118 290 -9 76 -42 167 -87
237 -24 38 -114 137 -227 248 -274 272 -277 277 -746 1225 -526 1065 -486 998
-1227 2015 -700 961 -852 1192 -1293 1965 -383 671 -487 834 -623 977 -120
125 -107 120 -746 328 -137 45 -288 99 -335 120 -122 55 -196 65 -461 64 -298
-1 -487 -26 -822 -110 -350 -87 -886 -147 -1658 -184 -113 -5 -253 -12 -311
-15 -105 -5 -106 -5 -167 27 -34 18 -102 62 -153 97 -50 35 -115 73 -143 86
-50 22 -133 101 -199 188 -15 20 -46 46 -69 58 -83 42 -240 12 -330 -63 l-27
-23 28 -73 c16 -40 63 -123 105 -185 118 -175 120 -196 47 -337 -138 -267
-515 -1324 -785 -2207 -185 -603 -290 -853 -468 -1125 -91 -138 -141 -202
-258 -322 -337 -348 -799 -581 -1337 -678 -170 -30 -538 -33 -703 -5 -445 75
-835 228 -1281 503 -202 125 -285 189 -430 334 -187 186 -306 359 -415 600
-132 295 -199 574 -269 1135 -13 103 -94 624 -120 770 -10 56 -112 734 -140
930 -8 54 -13 100 -12 101 1 0 106 -58 232 -131 672 -385 1294 -691 1571 -774
159 -47 229 -56 449 -55 189 0 223 3 338 27 498 106 999 387 1509 849 247 224
663 618 1112 1053 292 282 331 329 752 890 365 486 575 798 705 1050 116 224
150 327 218 666 22 108 47 223 55 256 50 192 88 536 111 998 8 176 22 367 30
425 38 263 74 697 75 910 l1 95 43 -135 c23 -74 50 -153 60 -175 31 -74 208
-235 257 -235 39 0 39 32 -1 89 -53 79 -83 142 -123 257 -52 150 -69 249 -70
404 0 163 9 194 110 367 l24 41 -23 -4 c-13 -2 -17 -2 -10 2 29 14 9 22 -23 8
-130 -54 -210 71 -222 351 -6 150 9 251 58 393 60 171 199 405 287 483 53 46
100 62 169 58 46 -4 50 -2 42 14 -8 13 -6 17 8 17 15 0 16 2 3 10 -14 9 -8 14
15 11 19 -2 -83 86 -118 103 -48 22 -129 21 -176 -4 -131 -67 -269 -331 -367
-705 -16 -62 -30 -99 -32 -85 -19 185 -38 457 -32 465 5 6 16 51 25 100 89
485 129 630 223 810 49 93 141 186 206 208 57 20 139 22 185 6 18 -6 33 -10
35 -8 2 2 0 49 -4 104 -13 162 -22 353 -29 630 l-6 260 24 33 c31 42 180 176
332 297 116 93 170 156 206 242 56 135 79 322 62 515 -20 233 -46 322 -211
703 -72 165 -137 325 -145 355 -7 30 -36 111 -63 179 -39 98 -47 128 -40 147
63 165 87 541 55 852 -37 356 -173 945 -285 1231 -161 412 -398 701 -960 1171
-361 302 -893 669 -1376 949 l-141 81 -6 163 c-9 245 -59 480 -136 642 -21 44
-63 132 -94 197 -64 136 -141 269 -247 428 -42 63 -117 178 -165 255 -181 288
-211 311 -455 351 -75 12 -106 23 -145 49 -77 51 -125 72 -211 93 -80 20 -244
36 -244 24 0 -4 42 -22 94 -40 52 -18 102 -40 112 -48 18 -15 18 -15 -1 -10
-11 3 -74 17 -140 32 -195 43 -282 71 -425 138 -74 35 -160 69 -190 76 -30 7
-163 47 -295 90 -574 187 -1025 285 -1530 334 -189 19 -595 27 -785 16z m4025
-6535 c61 -412 200 -793 414 -1140 184 -299 494 -621 786 -819 67 -46 70 -50
100 -129 96 -251 164 -345 540 -746 50 -53 107 -116 127 -141 82 -103 140
-268 138 -395 -1 -38 -1 -80 -1 -92 1 -12 41 -82 90 -155 149 -223 209 -351
237 -509 15 -85 9 -119 -26 -167 -17 -22 -21 -38 -16 -59 4 -15 56 -129 116
-253 l109 -225 11 -190 c43 -794 37 -1571 -15 -2215 -50 -613 -139 -1115 -266
-1509 -109 -336 -322 -811 -509 -1136 -295 -513 -641 -867 -812 -830 -38 9
-107 102 -278 372 -289 457 -399 610 -541 751 -98 98 -190 162 -285 199 -99
38 -196 36 -639 -14 -203 -24 -539 -61 -745 -83 -772 -83 -1780 -211 -2090
-264 -791 -137 -1309 -335 -1581 -607 -97 -97 -167 -216 -194 -331 -19 -83
-19 -258 1 -495 19 -224 15 -399 -11 -461 -49 -120 -162 -110 -375 33 -374
251 -910 818 -1217 1286 -165 253 -195 344 -388 1199 -322 1427 -399 1731
-538 2115 -125 344 -273 684 -446 1020 l-109 211 -76 339 c-252 1129 -335
1640 -376 2322 -10 178 -14 460 -5 451 3 -2 5 -70 6 -151 0 -83 5 -149 10
-153 5 -3 7 -15 3 -26 -4 -13 -2 -18 5 -14 5 4 13 23 17 44 4 20 15 48 25 61
11 13 19 31 19 40 0 9 7 25 15 35 8 11 15 27 15 37 0 9 9 28 20 42 11 14 20
34 20 45 0 10 9 31 21 46 16 21 19 35 15 73 -5 42 -5 44 5 20 16 -40 30 -23
28 34 -2 28 3 55 9 61 9 9 12 7 12 -10 0 -12 5 -22 10 -22 6 0 10 7 10 17 0 9
10 30 23 47 12 17 28 44 36 61 11 26 10 31 -5 42 -10 8 -25 11 -32 8 -8 -3
-26 -7 -40 -10 -15 -3 -3 4 27 15 79 29 195 51 283 53 86 2 112 -10 90 -41
-36 -49 -52 -78 -48 -87 1 -5 27 -9 57 -9 40 1 103 20 239 69 882 322 1389
448 1952 486 l177 12 98 -36 c377 -140 684 -194 1056 -184 519 13 938 112
1346 316 86 44 105 49 163 50 171 1 389 48 603 130 575 219 843 361 1113 593
47 41 62 47 135 61 116 21 235 71 360 152 275 177 364 263 516 503 122 192
241 360 348 492 l78 95 7 -110 c3 -60 14 -159 23 -220z m-8575 -2375 c0 -5 -5
-10 -11 -10 -5 0 -7 5 -4 10 3 6 8 10 11 10 2 0 4 -4 4 -10z m-32 -45 c2 -32
-14 -41 -20 -10 -3 13 -3 27 0 30 11 11 18 4 20 -20z m-178 2 c0 -2 -10 -12
-22 -23 l-23 -19 19 23 c18 21 26 27 26 19z m60 -254 c0 -10 -5 -25 -10 -33
-7 -11 -10 -7 -10 18 0 17 5 32 10 32 6 0 10 -8 10 -17z m-68 -141 c-7 -2 -12
-21 -12 -43 0 -28 -4 -39 -15 -39 -8 0 -19 -15 -25 -32 -10 -32 -10 -32 -4 7
3 22 10 44 15 50 5 5 9 16 9 25 0 24 33 67 38 50 3 -8 0 -16 -6 -18z m8603
-6881 c115 -52 165 -185 165 -439 0 -108 -42 -756 -65 -1012 -62 -669 -154
-1004 -340 -1237 -65 -81 -223 -236 -260 -255 -11 -6 -2 6 20 26 22 21 32 35
22 32 -10 -3 -23 -6 -28 -6 -6 0 -8 -4 -4 -9 6 -10 -45 1 -66 15 -7 4 -9 3 -5
-4 8 -14 -17 -27 -66 -36 -22 -4 -53 -21 -75 -41 -34 -31 -54 -38 -136 -49
-52 -7 -213 -47 -227 -57 -12 -7 -12 -11 -3 -17 8 -5 -5 -13 -35 -22 -26 -7
-53 -22 -60 -32 -7 -10 -17 -16 -22 -13 -5 3 -16 -2 -25 -11 -9 -9 -33 -23
-53 -30 -36 -12 -33 -18 13 -26 13 -3 4 -9 -27 -18 -48 -14 -63 -29 -30 -31 9
0 12 -3 5 -5 -7 -3 -20 -1 -30 4 -10 5 -27 6 -38 1 -18 -7 -18 -8 -2 -8 20 -1
66 -49 67 -68 0 -7 -10 -13 -22 -14 l-23 0 21 -9 c24 -10 41 -30 25 -30 -6 0
-3 -9 6 -20 15 -17 19 -18 33 -5 9 8 19 12 22 9 4 -3 16 -1 27 6 12 6 21 9 21
6 0 -8 -174 -104 -281 -155 -132 -63 -265 -107 -374 -123 -178 -25 -493 28
-653 112 -46 23 -81 44 -79 46 2 3 24 -7 48 -20 70 -38 86 -40 100 -14 12 22
11 22 -7 8 -10 -8 -16 -10 -12 -6 4 5 2 16 -5 24 -10 13 -9 15 6 9 15 -5 17 0
17 37 0 26 5 46 13 49 7 3 5 6 -5 6 -25 1 -22 17 3 24 11 3 23 15 26 26 3 12
11 21 18 21 13 0 29 29 21 38 -3 2 -22 6 -43 7 -21 1 -52 9 -68 18 l-30 16 28
1 c15 0 27 5 27 11 0 8 -13 9 -41 5 -48 -8 -77 8 -58 30 9 12 4 14 -30 14 -23
0 -41 5 -41 11 0 6 -9 9 -20 6 -11 -3 -20 -1 -20 3 0 5 -19 10 -42 12 -24 2
-42 8 -41 14 1 7 -39 11 -120 12 -67 1 -156 6 -197 11 -41 4 -83 7 -92 5 -10
-1 -18 1 -18 5 0 4 -7 8 -15 8 -8 0 -15 -5 -15 -10 0 -5 -15 0 -32 12 -18 11
-32 26 -30 32 1 6 -2 8 -8 4 -11 -7 -171 100 -330 220 -112 85 -170 145 -203
212 -39 77 -127 314 -241 651 -164 481 -217 631 -296 832 -109 280 -129 377
-92 450 22 45 96 94 180 120 125 39 240 56 882 130 146 17 452 57 680 90 228
33 627 87 885 120 717 92 910 124 1224 206 263 69 337 82 441 83 72 0 105 -4
135 -18z m-545 -2916 c-7 -9 -15 -13 -17 -11 -7 7 7 26 19 26 6 0 6 -6 -2 -15z
m-2590 -272 c0 -7 -39 17 -46 28 -3 6 5 3 20 -6 14 -10 26 -19 26 -22z m1875
-183 c3 -5 -3 -10 -15 -10 -12 0 -18 5 -15 10 3 6 10 10 15 10 5 0 12 -4 15
-10z m115 -5 c0 -2 -10 -9 -22 -15 -22 -11 -22 -10 -4 4 21 17 26 19 26 11z
m-85 -15 c-3 -5 -12 -10 -18 -10 -7 0 -6 4 3 10 19 12 23 12 15 0z"/>
<path d="M16565 35520 c-4 -6 -11 -8 -16 -4 -6 3 -5 -3 2 -14 12 -19 14 -19
26 -4 7 9 13 20 13 25 0 11 -18 9 -25 -3z"/>
<path d="M25405 34189 c-549 -35 -1309 -231 -1748 -450 -463 -232 -1005 -580
-1274 -817 -42 -37 -63 -63 -63 -78 0 -12 18 -58 40 -102 68 -136 182 -229
326 -266 92 -24 106 -19 39 14 l-60 28 56 1 c31 1 92 -4 135 -10 105 -14 184
4 324 73 97 48 426 263 778 508 444 309 800 471 1192 540 166 29 380 59 543
75 358 37 545 8 981 -149 307 -111 403 -135 421 -107 15 25 -101 125 -386 334
-428 312 -545 371 -787 396 -143 15 -369 19 -517 10z"/>
<path d="M18560 33084 c-319 -38 -757 -135 -898 -199 -74 -34 -159 -119 -338
-337 -270 -330 -330 -416 -307 -439 17 -17 90 23 305 168 379 253 489 284
1139 314 510 24 734 -24 1284 -274 314 -142 583 -242 802 -297 92 -23 173 -27
173 -8 0 6 -21 38 -46 70 -25 32 -42 58 -37 58 4 0 57 -27 117 -60 60 -33 110
-59 112 -58 5 5 -166 265 -238 362 -89 122 -267 304 -368 378 -90 66 -263 172
-328 199 -122 53 -332 97 -590 124 -174 19 -623 18 -782 -1z"/>
<path d="M24832 32906 c-136 -22 -252 -49 -252 -57 0 -8 33 -29 45 -29 4 0 5
7 2 15 -4 8 -2 17 4 20 5 4 8 1 7 -7 -2 -7 8 -14 22 -17 16 -2 -26 -16 -109
-37 -74 -19 -174 -48 -221 -64 -138 -47 -605 -254 -693 -307 -96 -58 -203
-160 -235 -225 -13 -26 -57 -145 -98 -263 -40 -119 -87 -248 -104 -288 -16
-39 -28 -72 -27 -74 2 -1 78 109 169 245 232 345 249 364 384 434 92 48 267
128 280 128 2 0 -5 -19 -15 -43 -59 -137 -53 -295 17 -437 40 -82 161 -198
253 -243 116 -57 185 -72 329 -71 150 0 227 18 356 79 157 75 271 201 332 363
34 93 36 228 4 323 -39 114 -109 207 -207 275 -35 24 -51 40 -44 45 28 17 205
20 290 5 161 -29 373 -117 524 -218 44 -29 86 -57 93 -61 35 -23 0 24 -105
139 -65 71 -104 119 -88 108 17 -12 50 -33 75 -48 l45 -27 -34 28 c-150 125
-390 268 -501 299 -77 22 -386 28 -498 10z m222 -315 c106 -52 216 -194 216
-280 0 -64 -80 -118 -210 -141 -200 -36 -370 83 -388 272 -6 69 9 110 50 140
49 34 107 48 190 45 62 -3 89 -10 142 -36z"/>
<path d="M24485 32831 c-14 -6 -8 -8 22 -7 23 0 36 4 30 8 -15 9 -26 9 -52 -1z"/>
<path d="M24566 32822 c-3 -5 1 -9 9 -9 8 0 12 4 9 9 -3 4 -7 8 -9 8 -2 0 -6
-4 -9 -8z"/>
<path d="M25715 32381 l140 -141 -20 -37 c-64 -121 -244 -323 -375 -421 -92
-69 -106 -82 -57 -53 49 30 48 11 -1 -22 -185 -122 -370 -169 -662 -169 -208
0 -367 17 -566 62 -71 16 -131 27 -133 24 -12 -12 31 -33 104 -52 459 -120
1017 -78 1277 94 138 92 335 301 468 498 27 41 50 79 50 83 -1 8 -317 250
-349 267 -9 4 47 -55 124 -133z"/>
<path d="M18905 32018 c-204 -20 -404 -90 -522 -181 -64 -49 -227 -215 -312
-317 l-55 -65 69 65 c55 53 64 58 46 30 -42 -68 -161 -277 -161 -284 0 -4 42
35 93 86 152 153 332 277 489 338 76 29 228 60 300 60 l38 0 -50 -68 c-181
-249 -148 -559 83 -768 69 -62 188 -125 287 -151 97 -25 272 -23 373 5 159 45
290 132 371 245 77 109 106 198 106 333 0 102 -16 168 -64 259 -17 33 -32 63
-34 66 -6 14 229 -39 352 -78 103 -33 172 -90 482 -395 82 -81 153 -148 157
-148 4 0 -17 35 -46 78 -30 42 -109 168 -176 279 -205 340 -257 371 -781 478
-353 71 -455 85 -715 93 -123 3 -202 9 -180 13 22 3 34 7 28 8 -28 3 -10 20
25 24 20 2 3 4 -38 4 -41 0 -115 -4 -165 -9z m42 -44 c-3 -3 -12 -4 -19 -1 -8
3 -5 6 6 6 11 1 17 -2 13 -5z m798 -265 c55 -6 114 -18 132 -26 40 -18 105
-88 131 -140 26 -52 45 -137 37 -165 -32 -104 -243 -162 -389 -107 -113 42
-196 161 -204 290 -4 62 -2 68 27 102 35 39 101 68 141 62 14 -2 70 -9 125
-16z"/>
<path d="M18170 31298 l-161 -213 43 -39 c151 -135 351 -275 506 -354 163 -83
279 -112 447 -112 151 0 457 52 422 71 -10 6 -60 2 -139 -12 -102 -18 -147
-20 -263 -16 -140 6 -205 18 -319 59 -41 15 -54 23 -42 28 12 4 -7 16 -61 38
-136 57 -306 169 -430 285 l-63 60 70 133 c38 73 90 167 114 209 25 41 44 75
42 75 -2 0 -76 -96 -166 -212z m1237 -654 c-3 -3 -12 -4 -19 -1 -8 3 -5 6 6 6
11 1 17 -2 13 -5z"/>
<path d="M19498 30663 c7 -3 16 -2 19 1 4 3 -2 6 -13 5 -11 0 -14 -3 -6 -6z"/>
<path d="M19455 30650 c-3 -6 1 -7 9 -4 18 7 21 14 7 14 -6 0 -13 -4 -16 -10z"/>
<path d="M22878 28774 l-47 -14 20 -45 c11 -25 17 -50 14 -55 -10 -17 57 -11
101 9 50 23 71 66 48 100 -18 25 -65 27 -136 5z"/>
<path d="M21649 28548 c-27 -28 -30 -34 -15 -36 39 -8 61 6 61 38 0 16 -3 30
-7 30 -3 0 -21 -15 -39 -32z"/>
<path d="M24446 27880 c-9 -17 -21 -30 -26 -30 -5 0 -35 -16 -67 -37 -71 -45
-199 -105 -276 -129 l-58 -18 -38 -80 c-150 -316 -457 -548 -886 -671 -191
-55 -302 -69 -540 -70 -232 0 -292 7 -470 52 -214 55 -489 185 -615 291 l-34
29 -141 -37 c-167 -44 -216 -54 -195 -40 13 8 13 10 -1 10 -9 0 -19 -7 -23
-15 -3 -8 -16 -15 -28 -14 -23 1 -22 1 2 10 28 10 34 10 -140 -13 -58 -8 -81
-14 -60 -15 82 -7 125 -15 106 -22 -12 -5 21 -18 100 -40 185 -51 644 -199
936 -301 179 -62 277 -90 295 -83 7 3 13 0 13 -6 0 -6 4 -11 10 -11 14 0 6 43
-8 48 -7 2 -15 -3 -18 -12 -3 -9 -11 -16 -16 -16 -6 0 -8 7 -5 14 4 11 1 13
-10 9 -11 -4 -14 -3 -9 6 5 7 14 10 22 7 7 -3 16 -1 19 5 4 5 17 7 31 5 14 -3
22 -1 19 5 -4 5 -11 7 -16 4 -5 -4 -9 -1 -9 5 0 7 -7 9 -16 6 -8 -3 -12 -2 -9
3 3 5 0 11 -7 14 -7 2 -3 2 9 1 212 -35 273 -43 358 -49 184 -12 428 27 598
94 243 97 493 268 758 519 53 50 96 85 96 77 0 -8 -5 -13 -10 -12 -5 1 -12 -4
-14 -10 -12 -32 21 -7 74 58 111 134 334 471 321 484 -2 3 -12 -9 -22 -25z
m-3438 -767 c-10 -2 -26 -2 -35 0 -10 3 -2 5 17 5 19 0 27 -2 18 -5z m1239
-359 c-3 -3 -12 -4 -19 -1 -8 3 -5 6 6 6 11 1 17 -2 13 -5z"/>
<path d="M24055 27342 c4 -8 -1 -23 -11 -35 -18 -22 -18 -22 6 0 20 19 22 25
11 35 -11 11 -13 10 -6 0z"/>
<path d="M21128 27153 c7 -3 16 -2 19 1 4 3 -2 6 -13 5 -11 0 -14 -3 -6 -6z"/>
<path d="M22375 26630 c3 -5 11 -10 16 -10 6 0 7 5 4 10 -3 6 -11 10 -16 10
-6 0 -7 -4 -4 -10z"/>
<path d="M23365 25958 c-242 -63 -498 -97 -754 -99 -88 -1 -100 -2 -71 -11 19
-5 37 -11 39 -13 2 -2 -9 -19 -23 -36 -15 -18 -23 -35 -18 -38 14 -9 44 -72
38 -78 -3 -3 5 -16 18 -28 17 -15 21 -26 15 -37 -7 -13 7 -19 84 -38 128 -32
286 -37 352 -13 61 22 99 48 91 61 -3 5 3 12 14 15 15 4 18 12 15 36 -2 17 -1
33 3 35 13 8 13 77 1 92 -6 8 -21 14 -33 14 -11 1 32 16 96 35 124 36 312 121
302 136 -6 11 10 14 -169 -33z"/>
<path d="M22471 24554 c0 -11 3 -14 6 -6 3 7 2 16 -1 19 -3 4 -6 -2 -5 -13z"/>
<path d="M28184 33758 l-19 -23 23 19 c12 11 22 21 22 23 0 8 -8 2 -26 -19z"/>
<path d="M27890 29911 c11 -22 82 -83 88 -76 5 4 -82 95 -92 95 -4 0 -2 -9 4
-19z"/>
<path d="M7917 23134 l-68 -35 28 -28 c28 -28 77 -33 66 -6 -3 8 9 21 30 32
31 17 33 20 23 44 l-11 27 -68 -34z"/>
<path d="M5427 22711 c15 -12 31 -17 49 -13 25 4 26 6 8 12 -10 4 -32 10 -49
14 l-30 6 22 -19z"/>
<path d="M10620 15405 c0 -5 5 -17 10 -25 5 -8 10 -10 10 -5 0 6 -5 17 -10 25
-5 8 -10 11 -10 5z"/>
<path d="M10545 15380 c39 -124 224 -641 225 -627 0 10 4 16 9 13 12 -8 8 25
-8 54 -10 17 -11 25 -2 28 6 2 11 13 12 25 1 16 4 12 10 -12 6 -18 12 -31 15
-28 3 2 -11 53 -30 113 -19 60 -55 176 -81 258 -41 131 -49 147 -59 129 -9
-18 -14 -20 -28 -9 -24 18 -23 29 2 16 14 -7 20 -7 20 0 0 10 -20 14 -47 11
-7 -1 -13 3 -13 9 0 6 -7 19 -16 28 -15 15 -16 14 -9 -8z"/>
<path d="M10811 14810 c0 -8 4 -24 9 -35 5 -13 9 -14 9 -5 0 8 -4 24 -9 35 -5
13 -9 14 -9 5z"/>
</g>
</svg>
